M48
; DRILL file {KiCad 9.0.7} date 2026-03-02T20:30:40+0100
; FORMAT={-:-/ absolute / metric / decimal}
; #@! TF.CreationDate,2026-03-02T20:30:40+01:00
; #@! TF.GenerationSoftware,Kicad,Pcbnew,9.0.7
; #@! TF.FileFunction,MixedPlating,1,4
FMAT,2
METRIC
; #@! TA.AperFunction,Plated,PTH,ComponentDrill
T1C0.600
; #@! TA.AperFunction,Plated,PTH,ComponentDrill
T2C0.700
; #@! TA.AperFunction,Plated,PTH,ComponentDrill
T3C0.900
; #@! TA.AperFunction,NonPlated,NPTH,ComponentDrill
T4C0.610
; #@! TA.AperFunction,NonPlated,NPTH,ComponentDrill
T5C1.700
%
G90
G05
T2
X167.544Y-45.0
X175.344Y-45.0
T3
X161.794Y-40.0
X161.794Y-42.5
X161.794Y-45.0
X161.794Y-47.5
X161.794Y-50.0
X168.944Y-42.5
X168.944Y-47.5
X171.444Y-42.5
X171.444Y-47.5
X173.944Y-42.5
X173.944Y-47.5
X181.094Y-40.0
X181.094Y-42.5
X181.094Y-45.0
X181.094Y-47.5
X181.094Y-50.0
T4
X166.725Y-25.675
X172.505Y-25.675
T5
X177.944Y-45.0
T1
X165.295Y-24.595G85X165.295Y-25.695
G05
X165.295Y-29.025G85X165.295Y-29.625
G05
X173.935Y-24.595G85X173.935Y-25.695
G05
X173.935Y-29.025G85X173.935Y-29.625
G05
M30
