M48
; DRILL file {KiCad 9.0.7} date 2026-04-13T21:36:34+0200
; FORMAT={-:-/ absolute / metric / decimal}
; #@! TF.CreationDate,2026-04-13T21:36:34+02:00
; #@! TF.GenerationSoftware,Kicad,Pcbnew,9.0.7
; #@! TF.FileFunction,MixedPlating,1,4
FMAT,2
METRIC
; #@! TA.AperFunction,Plated,PTH,ViaDrill
T1C0.150
; #@! TA.AperFunction,Plated,PTH,ViaDrill
T2C0.200
; #@! TA.AperFunction,Plated,PTH,ComponentDrill
T3C0.600
; #@! TA.AperFunction,Plated,PTH,ComponentDrill
T4C0.700
; #@! TA.AperFunction,Plated,PTH,ComponentDrill
T5C0.900
; #@! TA.AperFunction,NonPlated,NPTH,ComponentDrill
T6C0.610
; #@! TA.AperFunction,NonPlated,NPTH,ComponentDrill
T7C1.700
%
G90
G05
T1
X127.0Y-62.5
X127.0Y-69.25
X128.0Y-72.0
X133.0Y-57.75
X136.0Y-59.0
T2
X101.0Y-45.2
X101.074Y-42.547
X101.1Y-46.5
X101.4Y-58.4
X102.0Y-82.4
X102.0Y-92.8
X102.2Y-70.0
X103.0Y-92.8
X104.0Y-76.8
X104.0Y-92.8
X104.5Y-37.2
X105.0Y-36.5
X105.0Y-54.5
X105.0Y-92.8
X105.2Y-34.8
X105.2Y-43.6
X105.322Y-44.822
X105.4Y-47.3
X105.5Y-82.0
X105.7Y-50.9
X106.0Y-92.8
X106.3Y-47.3
X106.5Y-46.5
X106.5Y-51.5
X107.0Y-92.8
X107.2Y-67.1
X107.5Y-73.0
X107.5Y-76.5
X107.8Y-49.0
X107.9Y-66.2
X108.4Y-35.2
X108.5Y-44.5
X108.5Y-64.6
X109.087Y-62.0
X109.193Y-81.807
X109.393Y-52.007
X109.9Y-72.8
X110.0Y-78.5
X110.74Y-57.13
X110.75Y-92.5
X111.2Y-56.2
X111.4Y-42.2
X111.4Y-95.631
X111.7Y-44.0
X112.0Y-40.5
X112.05Y-97.431
X112.06Y-55.73
X113.2Y-98.4
X113.45Y-59.33
X113.45Y-92.5
X113.5Y-50.12
X113.6Y-56.1
X114.1Y-95.631
X114.4Y-49.4
X114.5Y-44.5
X114.75Y-97.431
X115.2Y-48.5
X115.5Y-79.6
X115.6Y-55.2
X115.9Y-98.4
X116.0Y-36.5
X116.0Y-37.5
X116.0Y-38.5
X116.0Y-39.5
X116.0Y-40.5
X116.15Y-67.125
X116.15Y-92.5
X116.3Y-47.5
X116.7Y-54.3
X116.8Y-95.631
X116.95Y-48.85
X117.007Y-90.407
X117.2Y-78.3
X117.45Y-97.431
X117.8Y-65.3
X117.817Y-69.827
X118.0Y-47.4
X118.0Y-91.3
X118.1Y-82.3
X118.6Y-98.4
X118.85Y-71.5
X118.85Y-92.5
X118.9Y-37.5
X118.9Y-40.0
X118.9Y-42.9
X118.955Y-60.923
X119.1Y-51.8
X119.36Y-74.238
X119.4Y-52.7
X119.5Y-44.0
X119.5Y-95.631
X119.7Y-83.0
X120.0Y-75.6
X120.15Y-91.449
X120.15Y-97.431
X120.6Y-42.0
X120.8Y-37.0
X120.9Y-78.107
X121.0Y-51.0
X121.0Y-74.0
X121.0Y-82.2
X121.204Y-56.995
X121.3Y-98.4
X121.5Y-45.6
X121.55Y-92.5
X121.8Y-74.8
X122.2Y-95.631
X122.4Y-87.6
X122.85Y-97.431
X122.861Y-90.833
X123.2Y-46.4
X123.487Y-71.9
X123.5Y-64.12
X123.5Y-66.62
X123.5Y-69.32
X123.6Y-51.5
X124.0Y-52.9
X124.0Y-98.4
X124.2Y-47.6
X124.25Y-59.75
X124.25Y-80.68
X124.25Y-92.5
X124.4Y-39.5
X124.9Y-81.5
X124.9Y-95.631
X125.34Y-87.89
X125.55Y-91.5
X125.55Y-97.431
X126.2Y-58.7
X126.7Y-98.4
X126.95Y-92.5
X127.6Y-37.3
X127.6Y-95.631
X128.0Y-45.5
X128.25Y-91.45
X128.25Y-97.431
X128.423Y-83.545
X128.7Y-44.5
X129.0Y-73.0
X129.4Y-98.4
X129.65Y-89.25
X129.65Y-92.5
X129.7Y-51.4
X130.0Y-42.79
X130.2Y-87.6
X130.3Y-95.631
X130.5Y-43.0
X130.6Y-84.6
X130.75Y-65.0
X130.95Y-91.45
X130.95Y-97.431
X131.0Y-42.79
X131.613Y-45.115
X131.613Y-47.115
X131.72Y-43.172
X132.1Y-98.4
X132.35Y-89.91
X132.35Y-92.5
X132.8Y-84.7
X133.0Y-95.631
X133.613Y-43.115
X133.613Y-47.115
X133.65Y-91.5
X133.65Y-97.431
X134.8Y-98.4
X135.0Y-82.0
X135.613Y-43.115
X135.613Y-45.115
X135.613Y-47.115
X135.7Y-95.631
X136.35Y-91.5
X136.35Y-97.431
X137.0Y-50.5
X137.327Y-84.683
X137.5Y-98.4
X138.0Y-51.5
X138.0Y-77.0
X138.4Y-95.631
X139.0Y-53.5
X139.05Y-91.0
X139.05Y-97.431
X139.8Y-43.6
X140.0Y-52.5
X140.2Y-98.4
X140.45Y-90.15
X140.45Y-92.5
X140.6Y-44.2
X141.1Y-95.631
X141.4Y-43.6
X141.6Y-45.6
X141.695Y-83.496
X141.75Y-91.0
X141.75Y-97.431
X141.8Y-74.3
X141.9Y-76.9
X142.9Y-98.4
X143.15Y-92.5
X143.16Y-80.43
X143.8Y-95.631
X144.45Y-90.5
X144.45Y-97.431
X145.3Y-81.4
X145.5Y-45.0
X145.6Y-43.6
X145.6Y-98.4
X145.85Y-92.5
X145.952Y-76.862
X146.5Y-95.631
X146.512Y-64.12
X146.512Y-66.72
X146.512Y-69.32
X146.512Y-71.82
X147.15Y-91.0
X147.15Y-97.431
X147.57Y-52.0
X147.9Y-54.3
X148.1Y-53.3
X148.3Y-98.4
X148.5Y-39.0
X148.55Y-92.5
X148.718Y-56.893
X149.2Y-95.631
X149.3Y-77.6
X149.4Y-51.0
X149.5Y-46.5
X149.85Y-91.0
X149.85Y-97.431
X150.0Y-74.0
X150.4Y-75.2
X150.996Y-60.805
X151.0Y-98.4
X151.25Y-67.1
X151.25Y-92.5
X151.9Y-95.631
X152.183Y-65.173
X152.2Y-69.7
X152.5Y-36.5
X152.5Y-37.5
X152.5Y-38.5
X152.5Y-39.5
X152.5Y-40.5
X152.55Y-91.0
X152.55Y-97.431
X152.9Y-49.4
X153.0Y-44.5
X153.05Y-55.9
X153.7Y-98.4
X153.95Y-92.5
X154.3Y-41.5
X154.6Y-91.1
X154.6Y-95.631
X154.758Y-61.1
X155.0Y-51.0
X155.2Y-78.9
X155.25Y-97.431
X155.8Y-90.6
X156.4Y-98.4
X156.65Y-92.5
X157.3Y-95.631
X157.4Y-88.3
X157.95Y-83.5
X157.95Y-97.45
X158.0Y-71.6
X158.0Y-73.0
X158.0Y-74.0
X158.4Y-47.7
X158.693Y-90.307
X159.0Y-44.0
X159.0Y-46.0
X159.0Y-56.5
X159.0Y-73.0
X159.0Y-74.0
X159.1Y-98.4
X159.4Y-86.7
X159.5Y-75.0
X159.5Y-76.0
X159.5Y-77.0
X159.5Y-78.0
X160.0Y-73.0
X160.0Y-74.0
X160.5Y-78.0
X161.0Y-73.0
X161.0Y-74.0
X161.0Y-97.2
X161.5Y-55.5
X161.5Y-87.5
X161.7Y-60.8
X162.0Y-73.0
X162.0Y-74.0
X162.5Y-78.5
X162.5Y-79.5
X162.5Y-80.5
X162.5Y-81.5
X163.0Y-92.5
X163.5Y-71.6
X163.5Y-78.5
X163.5Y-81.5
X164.0Y-92.5
X165.0Y-42.5
X165.0Y-45.0
X165.0Y-47.5
X165.0Y-62.25
X165.0Y-92.5
X166.0Y-92.5
X166.1Y-48.8
X166.25Y-59.25
X166.5Y-64.25
X167.0Y-92.5
X167.1Y-68.7
X167.5Y-37.5
X167.5Y-40.0
X167.5Y-42.5
X167.5Y-45.0
X167.5Y-47.5
X167.5Y-53.0
X168.0Y-67.5
X168.0Y-92.5
T4
X131.1Y-67.5
X138.9Y-67.5
T5
X125.35Y-62.5
X125.35Y-65.0
X125.35Y-67.5
X125.35Y-70.0
X125.35Y-72.5
X132.5Y-65.0
X132.5Y-70.0
X135.0Y-65.0
X135.0Y-70.0
X137.5Y-65.0
X137.5Y-70.0
X144.65Y-62.5
X144.65Y-65.0
X144.65Y-67.5
X144.65Y-70.0
X144.65Y-72.5
T6
X105.6Y-32.11
X105.6Y-37.89
T7
X141.5Y-67.5
T3
X102.25Y-30.68G85X101.65Y-30.68
G05
X102.25Y-39.32G85X101.65Y-39.32
G05
X106.68Y-30.68G85X105.58Y-30.68
G05
X106.68Y-39.32G85X105.58Y-39.32
G05
M30
